<?xml version="1.0" encoding="UTF-8"?><svg id="Calque_1" xmlns="http://www.w3.org/2000/svg" xmlns:xlink="http://www.w3.org/1999/xlink" viewBox="0 0 1932 1366.07"><defs><clipPath id="clippath"><rect x="0" y="0" width="1932" height="1366.07" fill="none" stroke-width="0"/></clipPath><clipPath id="clippath-1"><path d="M260.691,314.101v554.623c0,27.793,23.001,50.066,50.778,49.174l134.432-9.175-2.809-418.401c-.342-51.239,42.562-92.174,93.728-89.423l642.752,34.542v-59.914c0-25.746-19.85-47.141-45.527-49.064l-820.48-61.424c-1.253-.094-2.501-.14-3.736-.14-26.895-.002-49.137,21.838-49.137,49.201" fill="none" stroke-width="0"/></clipPath><linearGradient id="Dégradé_sans_nom_2" x1="-16.59" y1="-243.923" x2="-14.295" y2="-243.923" gradientTransform="translate(6903.599 -97077.796) scale(400.412 -400.412)" gradientUnits="userSpaceOnUse"><stop offset="0" stop-color="#d95628"/><stop offset=".146" stop-color="#db5f25"/><stop offset=".388" stop-color="#e37920"/><stop offset=".696" stop-color="#efa217"/><stop offset="1" stop-color="#fed20d"/></linearGradient><clipPath id="clippath-2"><rect x="0" y="0" width="1932" height="1366.07" fill="none" stroke-width="0"/></clipPath><linearGradient id="Dégradé_sans_nom_2-2" x1="-16.48" y1="-243.297" x2="-14.185" y2="-243.297" gradientTransform="translate(9603.756 -133935.198) scale(553.674 -553.674)" xlink:href="#Dégradé_sans_nom_2"/></defs><g clip-path="url(#clippath)"><g clip-path="url(#clippath-1)"><rect x="260.691" y="264.898" width="918.88" height="653.893" fill="url(#Dégradé_sans_nom_2)" stroke-width="0"/></g><g clip-path="url(#clippath-2)"><path d="M733.707,684.535c-8.053,31.816-27.123,47.643-57.213,47.104-41.826-.805-83.651-1.65-125.47-2.536,11.357-47.581,22.714-94.628,34.074-141.16,19.557,1.306,39.113,2.584,58.672,3.83-16.475-13.755-32.947-27.731-49.422-41.938,41.823,3.298,83.649,6.435,125.477,9.42,23.699,1.712,35.547,12.413,35.547,32.174,0,5.347-.831,11.357-2.483,18.053-6.396,24.874-12.789,49.89-19.182,75.053M667.919,669.204c4.213-16.95,8.424-33.833,12.638-50.649.902-3.456,1.315-6.531,1.241-9.225,0-10.104-5.907-15.522-17.716-16.268-3.309-.209-6.621-.418-9.93-.626-8.238,33.112-16.475,66.481-24.711,100.114,3.309.106,6.621.211,9.93.317,15.043.47,24.559-7.449,28.548-23.662" fill="#4b5964" stroke-width="0"/><path d="M792.951,733.774c-19.261-.335-38.521-.682-57.779-1.033,11.359-44.908,22.719-89.352,34.081-133.353,19.261,1.108,38.521,2.189,57.782,3.245-11.362,43.285-22.723,86.993-34.083,131.141M829.29,593.745c-19.261-1.101-38.521-2.233-57.782-3.392,2.334-9.023,4.665-18.026,6.997-27.013,19.261,1.308,38.521,2.584,57.782,3.828-2.332,8.842-4.665,17.7-6.997,26.576" fill="#4b5964" stroke-width="0"/><path d="M991.015,649.936c-21.519-.794-43.037-1.616-64.556-2.46.452-1.636.675-3.174.677-4.603,0-5.944-4.252-9.101-12.755-9.473-12.488-.548-18.733,2.882-18.733,10.308,0,4.819,7.222,8.824,21.668,11.945,23.024,5.039,37.394,8.828,43.115,11.499,11.736,5.503,17.604,13.191,17.604,23.139,0,2.618-.376,5.338-1.127,8.163-7.073,26.039-37.661,38.81-91.757,38.016-49.658-.716-73.77-15.217-72.34-43.386,21.516.624,43.035,1.232,64.554,1.822-.452,1.593-.677,3.075-.677,4.447,0,6.187,4.663,9.388,13.994,9.604,13.092.298,19.637-3.25,19.637-10.632,0-4.72-7.222-8.569-21.668-11.6-22.797-4.812-37.169-8.702-43.111-11.536-11.738-5.586-17.606-13.647-17.606-24.098,0-2.651.376-5.482,1.129-8.486,7.146-27.194,37.766-39.102,91.865-36.297,48.153,2.485,71.516,16.931,70.087,43.629" fill="#4b5964" stroke-width="0"/><path d="M1117.537,649.867c-9.404-.314-18.811-.633-28.215-.957-8.241,29.514-16.479,59.198-24.718,89.06-19.263-.259-38.526-.525-57.789-.803,8.238-30.29,16.479-60.391,24.718-90.309-9.407-.344-18.811-.693-28.215-1.047,3.121-11.307,6.244-22.583,9.368-33.835,9.404.431,18.811.858,28.215,1.278,3.087-11.215,6.171-22.404,9.255-33.567,19.263,1.012,38.526,1.994,57.789,2.947-3.084,11.018-6.171,22.058-9.255,33.121,9.407.395,18.811.785,28.217,1.168-3.123,10.958-6.247,21.939-9.37,32.942" fill="#4b5964" stroke-width="0"/><path d="M1239.093,647.419c-8.73-1.673-17.684-2.662-26.861-2.951-15.426-.498-25.585,7.736-30.473,24.8-6.623,23.215-13.243,46.528-19.866,69.947-19.263-.234-38.526-.475-57.789-.723,11.364-40.69,22.726-81.054,34.088-121.112,19.263.776,38.526,1.524,57.789,2.249-.376,1.336-.755,2.674-1.131,4.011,9.631-3.059,19.639-4.383,30.023-4.004,10.384.381,17.679.783,21.895,1.212-2.559,8.844-5.115,17.7-7.674,26.572" fill="#4b5964" stroke-width="0"/><path d="M1281.642,740.566c-19.263-.202-38.526-.411-57.788-.627,11.362-39.632,22.723-78.981,34.085-118.067,19.263.672,38.526,1.32,57.789,1.941-11.362,38.666-22.723,77.579-34.085,116.752M1317.983,615.876c-19.263-.649-38.524-1.326-57.786-2.026,2.332-8.018,4.665-16.025,6.997-24.02,19.263.787,38.526,1.549,57.786,2.279-2.332,7.913-4.665,15.834-6.997,23.768" fill="#4b5964" stroke-width="0"/><path d="M1389.875,683.806c-26.634-.509-53.268-1.046-79.904-1.616,3.084-10.563,6.168-21.108,9.255-31.634,26.634.723,53.27,1.407,79.904,2.052-3.084,10.384-6.171,20.782-9.255,31.198" fill="#4b5964" stroke-width="0"/><path d="M699.738,984.328c-34.53,2.031-69.056,4.147-103.582,6.348-23.772,1.549-35.618-8.268-35.54-29.502,0-5.514.826-11.919,2.481-19.203,6.393-27.088,12.787-54.007,19.18-80.755,8.048-33.904,27.116-50.718,57.206-50.842,34.528-.186,69.056-.365,103.589-.535-3.084,12.296-6.169,24.628-9.253,36.993-19.033.308-38.067.624-57.098.945-15.047.246-24.601,8.631-28.662,25.241-4.213,17.347-8.424,34.762-12.638,52.249-.828,3.516-1.242,6.683-1.242,9.498,0,10.283,5.941,15.121,17.826,14.529,19.033-.934,38.067-1.85,57.1-2.742-3.123,12.555-6.244,25.149-9.367,37.778" fill="#4b5964" stroke-width="0"/><path d="M895.309,914.347c-10.607,40.632-44.015,62.621-100.213,65.772-47.625,2.683-71.285-11.073-70.982-41.511.076-5.556.941-11.628,2.595-18.207.902-3.734,1.806-7.463,2.708-11.19,10.607-42.73,44.008-64.193,100.211-64.921,47.324-.624,70.986,13.326,70.986,41.78,0,5.352-.865,11.224-2.595,17.629-.904,3.546-1.806,7.096-2.71,10.648M822.744,930.56c3.272-12.83,6.545-25.624,9.817-38.381.828-3.373,1.244-6.267,1.241-8.681.002-7.479-3.798-11.132-11.396-10.96-10.157.225-16.929,7.045-20.314,20.514-3.272,12.872-6.545,25.782-9.817,38.728-.904,3.428-1.354,6.366-1.354,8.81,0,7.578,3.796,11.187,11.396,10.834,10.157-.47,16.966-7.442,20.426-20.862" fill="#4b5964" stroke-width="0"/><path d="M1036.952,967.162c-19.263.833-38.526,1.689-57.786,2.573,7.337-27.556,14.671-54.952,22.007-82.194.828-3.22,1.278-5.983,1.354-8.294,0-7.142-3.8-10.643-11.398-10.497-10.157.193-16.968,6.726-20.429,19.648-7.337,27.423-14.671,55.005-22.007,82.752-19.263.909-38.523,1.843-57.784,2.802,11.359-43.694,22.721-86.972,34.083-129.856,19.263-.262,38.523-.519,57.786-.769-.376,1.427-.753,2.852-1.129,4.28,9.03-3.72,21.331-5.657,36.906-5.847,27.914-.314,41.872,10.056,41.874,31.081,0,5.432-.98,11.612-2.935,18.558-6.848,25.126-13.693,50.379-20.541,75.762" fill="#4b5964" stroke-width="0"/><path d="M1227.92,917.232c-14.07,29.358-45.936,45.107-95.596,47.092-47.255,1.914-70.92-10.685-70.993-38.028,0-5.209.863-10.884,2.595-17.016.904-3.435,1.806-6.866,2.708-10.295,10.611-38.872,44.017-58.381,100.225-58.899,47.329-.443,70.993,12.413,70.993,38.512,0,1.34-.039,2.683-.112,4.021-22.648.42-45.298.858-67.946,1.313.826-3.073,1.241-5.746,1.241-8.023,0-6.749-3.798-10.063-11.398-9.941-10.159.161-16.929,6.38-20.316,18.694-3.272,11.77-6.547,23.566-9.82,35.389-.904,3.132-1.354,5.815-1.354,8.053,0,6.933,3.798,10.272,11.401,10.019,10.157-.34,16.966-6.703,20.426-19.052,22.648-.638,45.298-1.251,67.946-1.838" fill="#4b5964" stroke-width="0"/><path d="M1408.043,904.258c-33.142.626-66.284,1.299-99.428,2.017-.865,3.018-1.73,6.038-2.595,9.058-.904,3.025-1.354,5.654-1.354,7.887,0,6.634,3.798,9.847,11.398,9.645,10.081-.271,16.553-5.322,19.412-15.134,22.421-.519,44.843-1.014,67.264-1.487-14.671,26.315-45.97,40.286-93.898,41.826-47.331,1.549-70.991-10.738-70.991-37.078,0-4.863.863-10.276,2.596-16.234.902-3.295,1.804-6.591,2.708-9.882,10.609-37.309,44.017-56.026,100.222-56.439,47.402-.356,71.099,12.087,71.099,37.273,0,4.909-.902,10.274-2.708,16.101-1.241,4.147-2.483,8.296-3.724,12.447M1345.183,884.901c.413-1.386.828-2.774,1.241-4.161.828-2.841,1.239-5.363,1.239-7.573.151-6.761-3.61-10.093-11.284-9.994-10.157.129-16.968,6.141-20.429,18.067-.415,1.395-.828,2.79-1.242,4.186,10.157-.179,20.316-.353,30.473-.526" fill="#4b5964" stroke-width="0"/><path d="M1577.544,898.668c-10.533,35.047-39.76,53.169-87.681,54.353-10.382.252-19.15-1.147-26.297-4.218-4.062,13.794-8.124,27.614-12.188,41.463-19.261.608-38.521,1.244-57.782,1.907,15.047-51.556,30.095-102.694,45.144-153.458,19.261-.142,38.521-.278,57.779-.408-.413,1.382-.826,2.763-1.242,4.147,9.179-3.5,18.884-5.271,29.115-5.336,39.421-.225,59.055,11.502,58.906,35.148-.078,5.117-1.056,10.813-2.937,17.087-.939,3.103-1.877,6.208-2.818,9.315M1514.801,878.524c.904-2.891,1.356-5.377,1.356-7.454-.002-6.43-3.8-9.609-11.398-9.533-10.157.101-16.968,5.886-20.426,17.374-3.272,10.981-6.545,21.978-9.817,32.993-.831,2.912-1.241,5.418-1.241,7.506,0,6.474,3.796,9.631,11.396,9.471,10.157-.211,16.929-6.058,20.314-17.523,3.272-10.962,6.545-21.907,9.817-32.835" fill="#4b5964" stroke-width="0"/><path d="M1709.898,867.293c-9.402.069-18.804.142-28.206.216-8.236,26.939-16.475,53.952-24.711,81.042-19.256.335-38.514.693-57.772,1.072,8.238-27.295,16.475-54.502,24.711-81.627-9.402.085-18.806.172-28.208.262,3.121-10.217,6.244-20.422,9.365-30.613,9.404-.053,18.806-.103,28.21-.151,3.084-10.191,6.166-20.369,9.25-30.537,19.258-.03,38.514-.06,57.77-.085-3.082,10.102-6.166,20.215-9.25,30.338,9.402-.041,18.804-.083,28.206-.124-3.121,10.061-6.244,20.13-9.365,30.209" fill="#4b5964" stroke-width="0"/><path d="M1463.378,796.702l-.969-222.975-.183-42.032c-.085-20.754-16.474-37.785-37.206-38.67h.011s-884.671-37.063-884.671-37.063h-.009c-.573-.025-1.142-.037-1.708-.037-21.313.039-38.793,17.324-38.831,38.875v554.912c.039,21.582,17.561,38.837,38.821,38.876.772,0,1.55-.023,2.334-.069l.037-.002,880.529-45.963,315.086-15.537c5.696-.281,10.542,4.109,10.823,9.806.281,5.696-4.109,10.542-9.805,10.823l-315.067,15.536.03-.002-880.487,45.961.069-.004c-1.188.07-2.371.104-3.548.104-32.643-.007-59.455-26.469-59.474-59.53V494.799c.015-33.011,26.779-59.521,59.485-59.528.861,0,1.725.018,2.591.055h0l884.661,37.064h.011c31.755,1.369,56.83,27.426,56.974,59.215l.183,42.032.969,222.976c.025,5.703-4.579,10.347-10.282,10.371-5.703.025-10.347-4.579-10.371-10.282h0Z" fill="url(#Dégradé_sans_nom_2-2)" stroke-width="0"/></g></g></svg>