<?xml version="1.0" encoding="UTF-8"?><svg id="Calque_1" xmlns="http://www.w3.org/2000/svg" xmlns:xlink="http://www.w3.org/1999/xlink" viewBox="0 0 1220.168 862.751"><defs><clipPath id="clippath"><rect width="1220.168" height="862.751" fill="none" stroke-width="0"/></clipPath><clipPath id="clippath-1"><rect width="1220.168" height="862.751" fill="none" stroke-width="0"/></clipPath><linearGradient id="Dégradé_sans_nom_2" x1="-622.478" y1="-344.617" x2="-621.029" y2="-344.617" gradientTransform="translate(344952.232 -190249.906) scale(553.674 -553.674)" gradientUnits="userSpaceOnUse"><stop offset="0" stop-color="#d95628"/><stop offset=".146" stop-color="#db5f25"/><stop offset=".388" stop-color="#e37920"/><stop offset=".696" stop-color="#efa217"/><stop offset="1" stop-color="#fed20d"/></linearGradient><linearGradient id="Dégradé_sans_nom_3" x1="294.536" y1="227.882" x2="717.717" y2="227.882" gradientTransform="translate(24.908 910.545) rotate(-2.335) scale(1 -1)" gradientUnits="userSpaceOnUse"><stop offset="0" stop-color="#d95628"/><stop offset=".146" stop-color="#db5f25"/><stop offset=".388" stop-color="#e37920"/><stop offset=".696" stop-color="#efa217"/><stop offset="1" stop-color="#fed20d"/></linearGradient><linearGradient id="Dégradé_sans_nom_2-2" x1="628.746" y1="235.473" x2="897.171" y2="235.473" gradientTransform="matrix(1,0,0,1,0,0)" xlink:href="#Dégradé_sans_nom_2"/></defs><g id="Calque_1-2"><g clip-path="url(#clippath)"><g clip-path="url(#clippath-1)"><path d="M463.378,432.323c-5.086,20.093-17.13,30.09-36.133,29.749-26.416-.509-52.83-1.042-79.241-1.602,7.172-30.05,14.345-59.763,21.52-89.15,12.351.824,24.702,1.632,37.055,2.419-10.405-8.687-20.808-17.514-31.213-26.486,26.414,2.083,52.829,4.064,79.246,5.95,14.968,1.082,22.45,7.839,22.45,20.32,0,3.377-.525,7.172-1.568,11.401-4.04,15.709-8.077,31.508-12.114,47.4M421.829,422.64c2.661-10.705,5.32-21.367,7.981-31.988.57-2.182.831-4.125.784-5.826,0-6.381-3.731-9.803-11.189-10.274-2.09-.132-4.182-.264-6.271-.395-5.203,20.912-10.405,41.986-15.607,63.228,2.09.067,4.182.134,6.271.2,9.501.296,15.51-4.704,18.03-14.944" fill="#4b5964" stroke-width="0"/><path d="M500.794,463.42c-12.165-.212-24.328-.431-36.491-.652,7.174-28.362,14.348-56.431,21.524-84.22,12.165.699,24.328,1.383,36.492,2.05-7.175,27.337-14.351,54.941-21.525,82.823M523.744,374.984c-12.165-.696-24.328-1.41-36.492-2.142,1.474-5.699,2.947-11.384,4.419-17.06,12.165.826,24.328,1.632,36.492,2.418-1.473,5.584-2.947,11.179-4.419,16.784" fill="#4b5964" stroke-width="0"/><path d="M625.883,410.472c-13.59-.502-27.18-1.021-40.771-1.554.286-1.033.426-2.005.428-2.907,0-3.754-2.686-5.748-8.055-5.983-7.887-.346-11.831,1.82-11.831,6.51,0,3.043,4.561,5.573,13.685,7.544,14.541,3.182,23.617,5.575,27.229,7.263,7.412,3.475,11.118,8.331,11.118,14.613,0,1.654-.238,3.371-.712,5.155-4.467,16.445-23.785,24.511-57.95,24.01-31.362-.452-46.59-9.61-45.687-27.401,13.589.394,27.179.778,40.77,1.151-.286,1.006-.428,1.942-.428,2.808,0,3.908,2.945,5.929,8.838,6.065,8.269.188,12.402-2.053,12.402-6.715,0-2.981-4.561-5.411-13.685-7.326-14.398-3.039-23.475-5.496-27.227-7.286-7.413-3.528-11.119-8.619-11.119-15.219,0-1.674.238-3.462.713-5.36,4.513-17.175,23.851-24.695,58.018-22.923,30.412,1.569,45.166,10.693,44.264,27.554" fill="#4b5964" stroke-width="0"/><path d="M705.788,410.428c-5.939-.198-11.881-.4-17.819-.604-5.205,18.64-10.408,37.387-15.611,56.247-12.165-.164-24.332-.332-36.497-.507,5.203-19.13,10.408-38.14,15.611-57.035-5.941-.217-11.881-.438-17.819-.662,1.971-7.141,3.943-14.263,5.916-21.369,5.939.273,11.881.542,17.819.807,1.95-7.083,3.898-14.149,5.845-21.2,12.165.639,24.332,1.259,36.497,1.861-1.948,6.958-3.898,13.931-5.845,20.918,5.941.249,11.881.496,17.821.738-1.972,6.921-3.946,13.856-5.918,20.804" fill="#4b5964" stroke-width="0"/><path d="M782.558,408.882c-5.513-1.057-11.169-1.681-16.964-1.864-9.742-.314-16.159,4.886-19.246,15.662-4.183,14.662-8.363,29.385-12.547,44.176-12.165-.147-24.332-.3-36.497-.457,7.177-25.698,14.352-51.19,21.529-76.489,12.165.49,24.332.963,36.497,1.42-.238.844-.477,1.689-.714,2.533,6.082-1.932,12.403-2.768,18.961-2.529,6.558.241,11.165.495,13.828.766-1.616,5.585-3.231,11.179-4.846,16.782" fill="#4b5964" stroke-width="0"/><path d="M809.43,467.71c-12.165-.127-24.332-.259-36.496-.396,7.176-25.03,14.351-49.881,21.527-74.566,12.165.425,24.332.834,36.497,1.226-7.176,24.42-14.351,48.996-21.527,73.736M832.381,388.961c-12.165-.41-24.33-.838-36.495-1.28,1.473-5.064,2.947-10.12,4.419-15.17,12.165.497,24.332.978,36.495,1.439-1.473,4.998-2.947,10-4.419,15.011" fill="#4b5964" stroke-width="0"/><path d="M877.785,431.863c-16.821-.321-33.641-.661-50.464-1.021,1.948-6.671,3.895-13.331,5.845-19.978,16.821.457,33.643.889,50.464,1.296-1.948,6.558-3.898,13.125-5.845,19.704" fill="#4b5964" stroke-width="0"/><path d="M441.924,621.659c-21.808,1.283-43.613,2.619-65.418,4.009-15.013.978-22.495-5.222-22.446-18.632,0-3.482.522-7.527,1.567-12.128,4.037-17.107,8.076-34.108,12.113-51.001,5.083-21.412,17.125-32.031,36.129-32.11,21.806-.117,43.613-.231,65.422-.338-1.948,7.766-3.896,15.554-5.844,23.363-12.02.195-24.041.394-36.061.597-9.503.155-15.537,5.451-18.102,15.941-2.661,10.956-5.32,21.954-7.981,32.998-.523,2.22-.784,4.22-.784,5.998,0,6.495,3.752,9.55,11.258,9.176,12.02-.59,24.041-1.168,36.061-1.731-1.972,7.929-3.943,15.883-5.916,23.859" fill="#4b5964" stroke-width="0"/><path d="M565.439,577.462c-6.699,25.662-27.798,39.548-63.29,41.539-30.078,1.694-45.02-6.993-44.829-26.217.048-3.509.594-7.344,1.639-11.498.57-2.358,1.141-4.714,1.71-7.067,6.699-26.986,27.794-40.541,63.289-41.001,29.888-.394,44.832,8.416,44.832,26.387,0,3.38-.547,7.089-1.639,11.134-.571,2.239-1.141,4.481-1.711,6.725M519.609,587.701c2.067-8.103,4.134-16.183,6.2-24.24.523-2.13.786-3.958.784-5.482.002-4.724-2.398-7.03-7.197-6.922-6.415.142-10.692,4.45-12.829,12.956-2.067,8.13-4.134,16.283-6.2,24.459-.571,2.165-.855,4.02-.855,5.564,0,4.786,2.398,7.065,7.197,6.842,6.415-.296,10.715-4.7,12.9-13.176" fill="#4b5964" stroke-width="0"/><path d="M654.894,610.818c-12.165.526-24.332,1.067-36.495,1.625,4.634-17.403,9.266-34.705,13.898-51.91.523-2.033.807-3.779.855-5.238,0-4.511-2.4-6.721-7.199-6.63-6.415.122-10.716,4.248-12.902,12.409-4.634,17.319-9.266,34.739-13.898,52.263-12.165.574-24.329,1.164-36.494,1.769,7.174-27.595,14.349-54.928,21.525-82.011,12.165-.165,24.329-.328,36.495-.486-.238.901-.476,1.801-.713,2.703,5.703-2.349,13.472-3.573,23.308-3.693,17.629-.198,26.444,6.351,26.446,19.629,0,3.431-.619,7.334-1.853,11.721-4.325,15.869-8.648,31.817-12.973,47.848" fill="#4b5964" stroke-width="0"/><path d="M775.501,579.285c-8.886,18.541-29.011,28.488-60.374,29.741-29.844,1.209-44.79-6.749-44.836-24.017,0-3.29.545-6.874,1.639-10.747.571-2.169,1.141-4.336,1.71-6.502,6.701-24.55,27.799-36.871,63.298-37.198,29.891-.279,44.836,7.839,44.836,24.322,0,.846-.025,1.694-.071,2.54-14.304.266-28.608.542-42.912.829.522-1.941.784-3.629.784-5.067,0-4.262-2.398-6.356-7.199-6.278-6.416.102-10.692,4.03-12.831,11.806-2.067,7.433-4.135,14.883-6.202,22.35-.571,1.978-.855,3.672-.855,5.086,0,4.379,2.398,6.488,7.2,6.328,6.415-.215,10.715-4.233,12.9-12.033,14.304-.403,28.608-.79,42.912-1.161" fill="#4b5964" stroke-width="0"/><path d="M889.259,571.09c-20.931.395-41.862.821-62.795,1.274-.547,1.906-1.092,3.814-1.639,5.72-.571,1.911-.855,3.571-.855,4.981,0,4.189,2.399,6.219,7.199,6.092,6.366-.171,10.454-3.361,12.26-9.558,14.16-.328,28.321-.641,42.481-.939-9.266,16.62-29.033,25.443-59.302,26.416-29.892.978-44.835-6.782-44.835-23.417,0-3.071.545-6.49,1.64-10.252.57-2.081,1.139-4.162,1.71-6.241,6.7-23.563,27.799-35.384,63.296-35.645,29.937-.225,44.903,7.634,44.903,23.54,0,3.1-.57,6.488-1.71,10.169-.784,2.619-1.568,5.239-2.352,7.861M849.56,558.865c.261-.875.523-1.752.784-2.628.523-1.794.783-3.387.783-4.783.096-4.27-2.28-6.374-7.127-6.312-6.415.082-10.716,3.878-12.902,11.41-.262.881-.523,1.762-.784,2.644,6.415-.113,12.831-.223,19.246-.332" fill="#4b5964" stroke-width="0"/><path d="M996.308,567.56c-6.652,22.134-25.11,33.579-55.375,34.327-6.557.159-12.094-.724-16.608-2.664-2.565,8.712-5.13,17.44-7.697,26.187-12.165.384-24.328.786-36.492,1.204,9.503-32.561,19.006-64.857,28.511-96.918,12.165-.09,24.328-.175,36.491-.258-.261.873-.522,1.745-.784,2.619,5.797-2.21,11.926-3.329,18.387-3.37,24.897-.142,37.297,7.264,37.202,22.198-.049,3.231-.667,6.829-1.855,10.791-.593,1.96-1.186,3.921-1.779,5.883M956.683,554.838c.571-1.826.856-3.396.856-4.707-.002-4.061-2.4-6.068-7.199-6.021-6.415.064-10.716,3.717-12.9,10.973-2.067,6.935-4.134,13.881-6.2,20.837-.525,1.839-.784,3.422-.784,4.741,0,4.088,2.398,6.082,7.197,5.981,6.415-.134,10.692-3.826,12.829-11.067,2.067-6.923,4.134-13.835,6.2-20.737" fill="#4b5964" stroke-width="0"/><path d="M1079.897,547.745c-5.938.043-11.876.09-17.814.137-5.202,17.013-10.405,34.074-15.607,51.183-12.162.212-24.324.438-36.486.677,5.203-17.239,10.405-34.421,15.607-51.552-5.938.054-11.877.109-17.815.165,1.971-6.453,3.943-12.898,5.915-19.334,5.939-.033,11.877-.065,17.816-.096,1.948-6.436,3.895-12.864,5.842-19.286,12.162-.019,24.324-.038,36.485-.054-1.946,6.38-3.895,12.767-5.842,19.16,5.938-.026,11.876-.052,17.814-.078-1.971,6.354-3.943,12.713-5.915,19.078" fill="#4b5964" stroke-width="0"/><path d="M924.206,502.619l-.612-112.348-.116-35.025c-.054-17.294-10.405-31.485-23.498-32.223h.007l-558.72-30.884h-.005c-.362-.021-.721-.031-1.078-.031-13.461.032-24.5,14.436-24.524,32.394v462.397c.025,17.984,11.091,32.362,24.518,32.395.488,0,.979-.019,1.474-.057l.023-.002,556.104-38.3,198.994-12.947c3.597-.234,6.658,3.424,6.835,8.171.178,4.746-2.595,8.784-6.193,9.019l-198.983,12.946.019-.002-556.078,38.299.043-.003c-.75.059-1.498.087-2.241.087-20.616-.006-37.549-22.056-37.561-49.605v-462.398c.009-27.507,16.912-49.598,37.568-49.603.543,0,1.089.015,1.637.046h0l558.714,30.885h.007c20.055,1.141,35.892,22.853,35.982,49.342l.116,35.025.612,112.348c.015,4.752-2.892,8.622-6.494,8.642-3.602.021-6.535-3.816-6.55-8.568h-.002.001Z" fill="url(#Dégradé_sans_nom_2)" stroke-width="0"/></g></g><path d="M724.515,646.79l-414.645,16.909.336,14.297,414.892-16.919c3.897-.159,6.947-3.412,6.856-7.311h0c-.094-3.996-3.445-7.139-7.439-6.976Z" fill="url(#Dégradé_sans_nom_3)" stroke-width="0"/></g><g id="Calque_2"><path d="M367.736,774.588c-23.573,1.351-32.348-12.607-22.615-35.969,9.696-23.272,31.988-40.053,55.095-41.428,3.428-.204,6.873-.474,9.962.115,15.313,2.922,10.951.304,6.825,16.739-.344,1.371-.719,2.94-2.837,3.753-2.615,1.004-2.354-.746-2.452-2.189-.55-8.136-5.41-12.139-14.182-12.123-14.122.026-25.977,7.458-35.233,22.204-6.932,11.044-10.362,21.612-8.683,30.992,3.127,17.47,30.044,14.447,43.356-1.893,1.035-1.271,2.2-3.082,3.903-2.572,1.827.546.727,2.287-.232,4.016-7.216,13.013-8.207,13.704-21.682,16.821-3.915.905-7.588,1.329-11.226,1.532h0Z" fill="#4b5964" stroke-width="0"/><path d="M684.4,722.039c3.546-15.455-6.309-21.346-23.072-14.059-2.18.946-8.001,6.348-5.435-1.019.352-1.024-1.019-1.031-2.225-.657-4.129,1.278-8.255,2.533-12.38,3.759-1.09.323-2.138.45-2.862,1.836-.81,1.549-.434,2.141.885,2.389,4.317.816,3.494,4.487,1.694,8.753-6.667,15.802-13.237,31.599-19.918,47.396-2.049,4.859-4.196,9.779-10.791,11.895-1.619.517-2.394,1.798-2.635,3.099-.328,1.743,1.402,1.066,2.481,1.034,2.999-.096,6.058-.32,9.094-.493,3.034-.166,6.04-.252,9.126-.557,1.254-.122,2.62.702,4.056-1.484,1.572-2.381.054-2.919-1.315-3.142-4.866-.797-4.511-4.447-2.295-9.321,1.513-3.33,2.917-6.667,4.173-9.977,1.109-2.933,2.392-3.375,4.862-3.089,19.534,2.268,41.666-15.069,46.557-36.364h0ZM662.297,747.311c-7.176,6.159-19.168,8.218-23.431,4.182-1.321-1.247-.405-2.995.354-4.819,1.809-4.352,3.643-8.698,5.466-13.045,1.123-2.69,2.18-5.382,3.397-8.072,1.952-4.297,2.321-9.072,9.375-11.31,7.124-2.259,13.448-3.542,16.491,1.351,4.04,6.505-2.339,23.726-11.651,31.713h0Z" fill="#4b5964" stroke-width="0"/><path d="M718.87,740.975c1.078-2.295,1.165-5.137,4.104-7.052,4.07-1.173,1.189,3.593,1.413,5.601,1.088,9.761,16.671,11.715,28.028,3.265,9.368-6.968,11.945-16.88,5.026-20.133-3.91-1.838-8.441-2.911-12.472-4.608-9.667-4.069-11.099-10.808-4.906-21.893,4.927-8.817,16.501-16.772,27.053-18.428,6.349-.996,12.029-.548,17.362.542,2.088.426,3.333,1.265,2.021,4.271-1.165,2.672-1.606,5.308-2.475,7.977-.51,1.567-.696,3.534-3.149,4.257-2.706.798-1.499-1.685-1.639-2.927-.95-8.439-8.765-11.144-19.413-6.723-5.313,2.205-9.47,5.601-11.823,10.733-2.266,4.944-1.171,8.221,2.208,9.907,3.402,1.698,7.119,3.027,10.828,4.344,12.031,4.274,14.207,10.507,7.724,22.534-5.597,10.384-18.099,18.915-31.021,20.786-4.557.66-9.146.923-13.086.313-11.874-1.837-9.792-.429-5.783-12.771h0v.002Z" fill="#4b5964" stroke-width="0"/><path d="M494.842,721.293c5.171-2.183,10.156-5.186,15.205-6.644,11.948-3.451,17.223,1.375,12.967,12.697-3.031,8.064-6.649,16.189-10.103,24.292-1.674,3.928-2.864,7.503.713,8.922,1.172.466,1.75,1.436.608,3.233-1.115,1.754-2.365,1.453-3.492,1.525-5.476.346-10.937.655-16.381.923-1.129.056-2.63.401-2.199-1.336.361-1.458,1.514-2.503,2.918-3.018,5.783-2.125,8.096-6.373,9.97-10.935,2.812-6.849,5.855-13.723,8.366-20.539,2.9-7.871.561-10.362-7.536-8.956-10.11,1.756-14.321,5.136-18.34,14.717-2.178,5.192-4.352,10.385-6.532,15.577-1.956,4.66-3.946,9.312.641,10.977,1.092.397,1.168,1.484.25,2.907-1.109,1.72-2.379,1.436-3.498,1.508-5.48.356-10.937.655-16.389.942-1.159.061-2.624.386-2.175-1.359.368-1.432,1.487-2.576,2.886-3.089,5.932-2.173,7.878-6.611,9.772-11.051,2.925-6.857,5.699-13.707,8.673-20.565,1.848-4.262,2.82-7.94-1.629-8.692-1.25-.211-1.843-.73-.973-2.348.743-1.383,1.847-1.525,2.899-1.851,4.125-1.277,8.323-2.838,12.351-3.728,5.327-1.176.641,3.458,1.027,5.892l.002-.002h0Z" fill="#4b5964" stroke-width="0"/><path d="M817.404,696.647c-14.919.772-31.317,13.098-37.988,28.554-6.637,15.375-1.099,26.021,13.173,25.342,15.478-.736,31.817-13.211,38.705-29.554,6.247-14.814.387-25.084-13.891-24.342h0ZM811.955,737.249c-8.932,9.004-20.879,10.533-23.583,2.687-2.768-8.035.518-17.711,7.885-27.511,8.363-11.122,21.795-13.704,25.663-5.409,2.343,5.035.66,11.455-1.744,17.832-2.316,4.482-4.466,8.621-8.221,12.402h0Z" fill="#4b5964" stroke-width="0"/><path d="M450.927,717.424c-15.107.732-31.833,13.394-38.344,29.023-6.397,15.344-.684,25.623,13.813,24.858,15.045-.796,31.363-13.339,38.176-29.359,6.314-14.829.537-25.206-13.644-24.521h0ZM445.624,757.717c-9.849,10.27-22.856,10.786-24.507.851-1.207-7.255,1.633-15.398,7.283-23.864,4.232-6.338,9.989-10.391,16.461-11.49,5.866-.997,9.383,1.306,10.865,5.709,1.549,4.626.168,10.247-1.903,16.275-2.01,4.187-4.392,8.548-8.199,12.52v-.002Z" fill="#4b5964" stroke-width="0"/><path d="M899.644,738.546c-.042-1.427-.995-1.549-2.485-.971-6.244,2.425-4.409-1.701-3.211-4.941,1.671-4.537,3.767-9.125,5.68-13.687l6.542-13.753c3.59-9.666.468-14.157-9.073-12.981-5.662.696-11.623,3.126-17.565,5.699-1.557.672-3.303,1.163-3.634,3.071-.428,2.469,1.723,1.355,3.418.878,4.989-1.406,9.954-2.754,14.442-2.464,4.519.294,4.993,3.217,3.224,7.725-1.69,4.305-2.777,8.621-9.362,9.766-5.461.95-11.228,3.042-16.949,5.493-9.092,3.896-13.34,8.721-13.869,15.614-.52,6.769,5.295,10.302,13.123,7.538,3.239-1.142,6.548-3.134,9.832-4.608,1.211-.545,2.565-2.023,3.216.005,1.758,5.493,6.637,5.472,14.134.64,1.307-.84,2.592-1.469,2.539-3.025h0ZM882.504,735.559c-5.017,2.446-10.217,5.446-13.909,3.024-2.002-1.322-2.766-3.604-1.021-6.857,3.044-5.664,8.28-6.738,12.974-8.808.859-.378,1.729-.529,2.592-.811,5.68-1.865,7.321-.083,4.922,5.348-1.227,2.9-1.065,5.92-5.557,8.104h0Z" fill="#4b5964" stroke-width="0"/><path d="M1016.729,727.455c-4.665,2.358-9.214,3.937-12.072,3.946-12.194.697-15.592-6.389-10.805-18.34,1.479-3.698,3.038-4.636,6.347-4.762,8.625-.336,17.409-1.038,26.089-1.491,2.54-.133,4.136-.399,5.281-3.879,4.333-13.174-4.159-21.065-18.211-16.542-11.034,3.553-21.197,12.78-27.375,24.85-6.115,11.948-5.745,21.712.975,25.812,6.705,4.084,19.646,1.541,30.723-6.024,1.426-.977,3.225-1.715,2.97-3.526-.299-2.104-2.151-.939-3.923-.044h.002ZM1005.154,695.777c5.682-5.309,13.123-7.267,16.354-4.246,2.297,2.145,3.798,5.475,1.061,9.459-1.917,2.491-3.935,2.039-7.328,2.231l-10.178.577c-2.827.161-4.768.838-5.474-.597-.943-1.898,3.157-5.171,5.564-7.423h0Z" fill="#4b5964" stroke-width="0"/><path d="M612.047,750.074c-4.893,2.626-9.641,4.245-12.176,4.287-12.294.714-15.713-5.508-11.852-17.095,1.366-4.099,2.958-5.999,7.475-6.068,8.33-.132,16.941-.87,25.489-1.479,1.779-.123,3.753.581,5.116-3.115,3.877-10.533-.857-18.751-11.062-18.439-10.638.32-22.52,7.999-30.639,19.788-9.191,13.359-10.669,26.172-3.627,31.508,6.552,4.961,21.505,2.241,32.157-5.783,1.314-.988,2.505-1.826,2.385-3.187-.154-1.699-1.538-1.348-3.265-.416h0ZM610.493,713.324c5.604-.635,8.428,2.529,7.783,8.227-.283,2.478-.834,3.74-3.923,3.853-6.708.227-13.538.716-20.283,1.098,4.215-7.693,10.096-12.463,16.424-13.178h0Z" fill="#4b5964" stroke-width="0"/><path d="M540.653,764.788c-15.892.862-18.825-16.904-4.962-34.691,10.009-12.842,26.352-21.195,38.187-19.419,1.971.296,3.957.766,4.755,2.492.947,2.051.065,4.382-2.554,6.791-2.298,2.114-4.458,2.518-5.716,1.238-3.991-4.057-9.11-6.059-17.6-.548-8.945,5.806-12.513,13.521-14.618,21.346-3.359,12.487,3,17.927,16.379,14.064,2.371-.685,4.802-1.464,7.187-2.558,1.991-.912,2.886-.76,3.008.803.126,1.615-1.503,2.267-2.674,2.955-6.994,4.105-13.942,7.361-21.39,7.525h0v.002Z" fill="#4b5964" stroke-width="0"/><path d="M860.521,701.046c-4.096,9.768-8.243,19.541-12.27,29.305-1.967,4.77-4.395,9.815.438,11.606,1.116.414,1.065,1.562.129,2.954-1.151,1.709-2.402,1.338-3.508,1.411-5.284.35-10.547.647-15.789.899-1.106.053-2.729.595-2.52-1.03.213-1.659,1.523-2.957,3.207-3.584,4.936-1.841,7.051-5.515,8.69-9.381,7.489-17.667,14.904-35.33,22.345-52.994,1.66-3.942,1.549-6.791-2.179-7.482-1.157-.215-1.816-.831-.915-2.462.784-1.418,1.836-1.429,2.883-1.688,16.705-4.132,16.623-8.811,9.415,8.753-3.239,7.893-6.613,15.796-9.925,23.694v-.002h0Z" fill="#4b5964" stroke-width="0"/><path d="M964.698,694.487c5.121-2.369,9.72-4.795,14.274-6.502,3.272-1.227,6.71-1.635,7.685,1.13.717,2.033-.451,4.625-3.006,6.927-2.371,2.136-4.233,2.038-5.569.826-2.923-2.652-7.423-.93-12.187,1.184-3.26,1.447-5.137,3.333-6.375,6.494-2.916,7.448-6.19,14.927-9.315,22.392-1.627,3.888-2.708,7.478.896,8.844,1.143.433,1.944,1.31.771,3.133-1.349,2.095-2.802,1.52-4.076,1.611-5.08.364-10.134.655-15.145.855-1.254.05-3.289.879-3.027-1.091.229-1.726,1.746-2.842,3.357-3.468,5.175-2.013,7.304-5.842,9.038-9.956,3.149-7.467,6.217-14.93,9.458-22.401,1.715-3.954,1.857-6.881-1.748-7.719-1.068-.248-2.17-.324-1.406-2.064.775-1.767,2.058-1.877,3.333-2.241,2.591-.739,5.178-1.441,7.778-2.253,4.827-1.508,6.581-.074,5.262,4.301v-.002h.002Z" fill="#4b5964" stroke-width="0"/><path d="M693.423,729.156c1.741-4.157,3.438-8.313,5.243-12.473,1.447-3.334,3.607-7.02-2.002-5.888-.887.179-1.317-.309-1.034-1.301.431-1.511,1.525-2.344,2.998-2.835,5.842-1.952,10.967-5.157,14.535-10.979.811-1.323,1.806-1.682,2.841-1.682,1.337,0,.941,1.075.473,2.144-.182.416-.309.851-.578,1.246-5.435,7.95-1.333,8.323,4.744,7.168.843-.16,1.607-.037,2.451-.201,2.025-.392,3.037-.123,2.049,2.294-.953,2.33-2.183,2.637-4.115,2.911-3.883.551-8.108-1.489-11.318,1.728-3.104,3.11-4.067,8.07-5.735,12.2-2.426,6.011-5.024,12.072-6.85,17.995-2.431,7.889-.112,9.403,8.131,6.544,1.876-.651,5.088-3.384,4.987-.231-.092,2.862-3.289,3.069-5.212,4.185-1.495.868-3.067,1.515-4.6,2.118-13.38,5.262-17.686,1.503-12.737-11.227,1.773-4.561,3.813-9.144,5.729-13.717h0Z" fill="#4b5964" stroke-width="0"/><path d="M929.667,711.187c-2.17,5.177-4.333,10.354-6.515,15.531-1.965,4.661-3.878,9.27.655,10.948,1.079.399,1.172,1.475.256,2.898-1.104,1.714-2.37,1.438-3.487,1.511-5.463.354-10.905.656-16.339.936-1.138.059-2.659.458-2.248-1.281.33-1.393,1.372-2.605,2.788-3.126,5.855-2.157,7.93-6.496,9.821-10.974,3.148-7.456,6.244-14.909,9.417-22.367,1.612-3.788,2.278-6.975-1.44-7.882-1.167-.284-2.537-.567-1.357-2.648,1.004-1.769,2.276-1.447,3.485-1.857,9.826-3.332,12.783-.335,8.871,8.991-1.303,3.106-2.605,6.213-3.908,9.318h.001Z" fill="#4b5964" stroke-width="0"/><path d="M948.018,673.498c-1.976,4.155-5.008,6.63-9.156,6.947-3.822.293-5.44-1.372-3.71-5.488,1.878-4.468,5.289-7.046,9.596-7.344,3.896-.269,4.835,1.941,3.27,5.885h0Z" fill="#4b5964" stroke-width="0"/></g><path d="M871.414,239.515c-28.72-39.621-68.351-60.604-117.276-65.051h0c-11.395-.87-22.622.074-33.802,1.691-35.211,5.093-64.753,20.887-89.573,45.685-3.131,3.128-2.566,4.412,1.344,6.101,47.293,20.427,94.576,40.876,141.848,61.35l123.217,7.521c-4.235-20.353-12.833-39.468-25.758-57.297Z" fill="url(#Dégradé_sans_nom_2-2)" stroke-width="0"/><path d="M364.167,257.626c-1.362-.667-2.688-1.002-4.146-.65-7.77,1.872-15.543,3.75-23.313,5.626l42.968,2.623c-5.176-2.534-10.344-5.066-15.509-7.598Z" fill="#114681" stroke-width="0"/><path d="M604.535,274.763c-10.759-4.81-20.712-10.635-33.64-5.366-7.494,2.204-14.364,4.183-21.466,6.188l66.045,4.031c-3.648-1.614-7.297-3.226-10.938-4.854Z" fill="#114681" stroke-width="0"/><path d="M445.623,248.067c-11.881-6.312-23.013-7.866-35.364-3.362-1.708.623-3.568.836-5.321,1.359-8.844,2.64-18.196,3.554-27.54,7.314,1.927,1.172,3.06,1.994,4.302,2.597,7.438,3.607,14.901,7.167,22.359,10.737l93.187,5.688c-17.342-7.865-34.853-15.423-51.623-24.333Z" fill="#114681" stroke-width="0"/><path d="M648.74,251.493c-2.414-1.027-4.632-1.398-7.131-.711l-41.276,12.098c.756,1.427,2.617,2.179,4.078,2.832,11.483,5.137,22.982,10.241,34.484,15.336l93.225,5.69c-28.103-11.858-55.766-23.497-83.38-35.245Z" fill="#114681" stroke-width="0"/><path d="M445.973,238.963c24.33,11.214,48.665,22.421,72.979,33.668,1.305.604,2.785.733,4.176.366,14.6-3.858,29.204-7.734,44.714-11.846,1.077-.285,1.192-1.745.174-2.195-10.811-4.782-20.792-9.243-30.827-13.583-8.955-3.873-16.297-6.927-26.911-11.501-.022-.01-.045-.02-.067-.031-3.911-1.961-3.983-2.223-6.091-3.135-3.647-1.56-6.761-3.337-10.977-4.598-.823-.264-2.071-.525-3.303-.145-.894.151-1.79.302-2.684.452l-38.909,9.445c-1.175.512-2.984.408-2.961,2.086.006.438.284.831.687,1.017Z" fill="#114681" stroke-width="0"/><path d="M509.348,224.423h0c24.901,10.909,48.382,21.176,71.822,31.534,2.054.908,3.71.853,5.836.256,12.57-3.529,25.2-6.85,37.818-10.214.475-.126.963-.226,1.437-.354,1.731-.467,1.877-2.835.222-3.524-18.748-7.806-37.519-15.018-55.607-23.622-12.391-5.895-23.671-5.659-37.354-3.703-7.801,1.115-15.353,3.718-23.923,6.123-1.708.479-1.876,2.792-.252,3.504Z" fill="#114681" stroke-width="0"/><path d="M741.323,34.642c-.343,21.824-.752,43.647-1.111,65.472-.1,6.06-.239,12.123-.112,18.18.086,4.115,2.016,7.06,6.654,7.107,4.268.043,6.21-2.537,6.654-6.441.137-1.204.158-2.421.197-3.071h0c-.096-5.011-.301-9.458-.246-13.902.322-26.268.708-52.536,1.062-78.804.056-4.175-1.665-7.424-6.178-7.49-4.607-.068-7.043,2.874-7.078,7.436-.03,3.837.219,7.677.159,11.513Z" fill="#fe863c" stroke-width="0"/><path d="M1034.984,223.411c2.955-1.133,4.692-3.091,5.327-5.916.246-4.765-4.681-8.088-9.63-6.214-30.187,11.426-60.332,22.957-90.45,34.553-3.721,1.432-6.376,4.029-4.556,8.438,1.791,4.339,5.123,5.392,9.514,3.699" fill="#fe863c" stroke-width="0"/><path d="M826.757,142.523c4.955,2.182,7.573-1.139,9.513-5.071.357-.724.628-1.488.958-2.225,11.605-25.961,23.218-51.918,34.81-77.885,1.228-2.752,2.333-5.558,3.079-7.341h0c.582-3.291-.258-5.033-1.957-6.437-4.236-3.498-8.364-2.315-11.079,3.601-5.299,11.55-10.364,23.205-15.519,34.82-7.446,16.774-14.842,33.57-22.361,50.312-1.887,4.202-2.284,8.094,2.557,10.227Z" fill="#fe863c" stroke-width="0"/><path d="M631.962,62.857c9.433,23.833,18.898,47.655,28.302,71.5,1.525,3.866,4.146,6.507,8.345,5.068,4.524-1.55,6.013-5.094,3.96-9.768-1.623-3.696-2.956-7.515-4.45-11.268-9.929-24.94-19.901-49.865-29.762-74.831-1.408-3.567-2.891-6.744-7.772-7.171h0c-4.067-.093-7.069,4.216-5.413,8.974,2.053,5.902,4.488,11.678,6.79,17.496Z" fill="#fe863c" stroke-width="0"/><path d="M525.325,117.92c12.531,12.544,25.068,25.082,37.62,37.604,9.09,9.068,18.208,18.108,27.311,27.163,2.001,1.99,4.106,3.129,7.133,1.954,2.638-1.025,3.839-2.827,4.146-4.898h0c.412-3.689-1.496-5.748-3.568-7.817-19.759-19.728-39.483-39.489-59.226-59.233-2.592-2.592-5.099-5.289-7.882-7.668-2.766-2.365-6.02-2.854-8.905-.269-3.094,2.771-2.919,6.013-.369,9.136,1.155,1.415,2.444,2.732,3.739,4.028Z" fill="#fe863c" stroke-width="0"/><polygon points="894.03 187.982 894.03 187.982 894.029 187.982 894.03 187.982" fill="#fe863c" stroke-width="0"/><path d="M894.03,187.982c3.718.243,5.538-1.337,7.334-3.073,6.009-5.807,12.069-11.563,18.091-17.357,16.451-15.827,32.885-31.672,49.346-47.489,2.315-2.224,4.042-4.574,2.961-7.997-1.664-5.272-6.6-6.496-11.052-2.234-23.118,22.128-46.103,44.389-69.093,66.645-.991.959-1.831,2.23-2.304,3.513-1.442,3.908,1.452,7.883,4.716,7.992Z" fill="#fe863c" stroke-width="0"/></svg>